<?xml version="1.0" encoding="utf-8"?>
<!-- Generator: Adobe Illustrator 19.0.1, SVG Export Plug-In . SVG Version: 6.00 Build 0)  -->
<svg version="1.1" id="Layer_1" xmlns="http://www.w3.org/2000/svg" xmlns:xlink="http://www.w3.org/1999/xlink" x="0px" y="0px"
	 viewBox="0 0 250 50" style="enable-background:new 0 0 250 50;" xml:space="preserve">
<style type="text/css">
	.st0{fill:#FF3366;}
	.st1{fill:#FFFFFF;}
	.st2{opacity:0.6;}
</style>
<g>
	<g>
		<g>
			<g>
				<path class="st0" d="M1.2,46.7l0-34.5c0-1,0.8-1.8,1.7-1.8c1,0,1.8,0.8,1.8,1.8v32.5l28.1-16.2c0.9-0.5,1.9-0.2,2.4,0.7
					c0.5,0.9,0.2,1.9-0.7,2.4L4.8,48.8C3.2,49.7,1.2,48.5,1.2,46.7z"/>
			</g>
			<g>
				<path class="st0" d="M8.9,39.2c-1,0-1.7-0.9-1.7-1.8l0-34.5c0-1.8,2-3,3.5-2l29.9,17.3c0.9,0.5,1.1,1.6,0.7,2.4
					c-0.5,0.9-1.6,1.1-2.4,0.7L10.7,4.9v32.5C10.7,38.4,9.9,39.2,8.9,39.2z"/>
			</g>
			<g>
				<path class="st0" d="M14.9,49.5c-0.6,0-1.2-0.3-1.5-0.9c-0.5-0.9-0.2-1.9,0.7-2.4l28.1-16.2L14,13.7c-0.9-0.5-1.1-1.6-0.7-2.4
					c0.5-0.9,1.6-1.1,2.4-0.7l29.9,17.3c1.6,0.9,1.6,3.2,0,4.1L15.8,49.3C15.5,49.4,15.2,49.5,14.9,49.5z"/>
			</g>
		</g>
		<g>
			<g>
				<path class="st1" d="M60.3,31.4L60.3,31.4c0-5.5,4.4-8.3,10.9-8.3c3.2,0,5.5,0.4,7.8,1.1v-0.9c0-4.6-2.8-6.9-7.6-6.9
					c-2.6,0-4.7,0.6-6.6,1.4c-0.2,0.1-0.5,0.1-0.7,0.1c-0.9,0-1.7-0.7-1.7-1.6c0-0.8,0.5-1.4,1-1.6c2.5-1.1,5.1-1.7,8.3-1.7
					c3.6,0,6.3,0.9,8.2,2.8c1.7,1.7,2.6,4.2,2.6,7.4v13.9c0,1.1-0.8,1.9-1.8,1.9c-1.1,0-1.8-0.8-1.8-1.8v-2.3
					c-1.8,2.3-4.7,4.4-9.2,4.4C65,39.3,60.3,36.6,60.3,31.4z M79,29.4V27c-1.9-0.5-4.4-1.1-7.5-1.1c-4.8,0-7.4,2.1-7.4,5.3v0.1
					c0,3.2,2.9,5.1,6.4,5.1C75.1,36.3,79,33.5,79,29.4z"/>
				<path class="st1" d="M111.6,37.1c0,1.1-0.8,1.9-1.9,1.9c-1.1,0-1.9-0.8-1.9-1.9v-3.4c-2.1,3-5.1,5.6-9.7,5.6
					c-6.1,0-12.1-4.8-12.1-13.2V26c0-8.3,6-13.2,12.1-13.2c4.7,0,7.8,2.6,9.7,5.4V4.6c0-1.1,0.8-1.9,1.9-1.9s1.9,0.8,1.9,1.9V37.1z
					 M89.8,26L89.8,26c0,6.1,4.2,9.9,8.9,9.9c4.7,0,9.2-4,9.2-9.8V26c0-5.8-4.5-9.8-9.2-9.8C93.9,16.2,89.8,19.8,89.8,26z"/>
			</g>
			<g>
				<path class="st1" d="M116.6,14.7c0-0.7,0.5-1.2,1.2-1.2c0.7,0,1.2,0.5,1.2,1.2v4.6c2.2-3.3,5.4-6.2,10.3-6.2
					c6,0,12.2,4.9,12.2,13v0.1c0,8.2-6.1,13.1-12.2,13.1c-5,0-8.3-2.8-10.3-6v12.2c0,0.7-0.5,1.2-1.2,1.2c-0.7,0-1.2-0.5-1.2-1.2
					V14.7z M138.9,26.3L138.9,26.3c0-6.7-4.6-10.9-9.8-10.9c-5.2,0-10.2,4.4-10.2,10.8v0.1c0,6.4,5,10.8,10.2,10.8
					C134.5,37,138.9,33.1,138.9,26.3z"/>
				<path class="st1" d="M145.2,31.5L145.2,31.5c0-5.3,4.5-8.3,11-8.3c3.5,0,5.9,0.4,8.3,1.1v-1.1c0-5.1-3.1-7.7-8.2-7.7
					c-2.7,0-5.1,0.7-7.1,1.7c-0.2,0.1-0.4,0.1-0.5,0.1c-0.6,0-1.1-0.5-1.1-1.1c0-0.6,0.4-1,0.7-1.1c2.6-1.1,5.1-1.9,8.2-1.9
					c3.4,0,6.1,0.9,7.9,2.7c1.7,1.7,2.6,4,2.6,7.1v14.6c0,0.7-0.5,1.2-1.2,1.2s-1.2-0.5-1.2-1.2v-3.1c-1.7,2.4-4.8,4.8-9.6,4.8
					C150.2,39.3,145.2,36.7,145.2,31.5z M164.5,29.4v-2.8c-2.1-0.5-4.9-1.1-8.5-1.1c-5.3,0-8.2,2.4-8.2,5.8v0.1
					c0,3.6,3.4,5.7,7.3,5.7C160.2,37.1,164.5,33.9,164.5,29.4z"/>
				<path class="st1" d="M172.5,14.7c0-0.7,0.5-1.2,1.2-1.2s1.2,0.5,1.2,1.2v6.1c2.2-4.9,6.5-7.5,10.1-7.5c0.7,0,1.3,0.6,1.3,1.3
					c0,0.7-0.5,1.3-1.3,1.3c-5.3,0.5-10.1,4.5-10.1,12.5v9.2c0,0.7-0.5,1.2-1.2,1.2c-0.7,0-1.2-0.5-1.2-1.2V14.7z"/>
				<path class="st1" d="M190.1,3.9c0-0.7,0.5-1.2,1.2-1.2c0.7,0,1.2,0.5,1.2,1.2v33.8c0,0.7-0.5,1.2-1.2,1.2s-1.2-0.5-1.2-1.2V3.9z
					"/>
				<path class="st1" d="M197.5,26.3L197.5,26.3c0-7.1,5.5-13.2,12.9-13.2c7.4,0,12.8,6,12.8,13v0.1c0,7-5.5,13.1-12.9,13.1
					C202.9,39.3,197.5,33.4,197.5,26.3z M220.7,26.3L220.7,26.3c0-6.1-4.5-11-10.3-11c-5.9,0-10.2,4.9-10.2,10.8v0.1
					c0,6,4.5,10.9,10.3,10.9C216.4,37.1,220.7,32.2,220.7,26.3z"/>
				<path class="st1" d="M228.2,14.7c0-0.7,0.5-1.2,1.2-1.2s1.2,0.5,1.2,1.2v6.1c2.2-4.9,6.5-7.5,10.1-7.5c0.7,0,1.3,0.6,1.3,1.3
					c0,0.7-0.5,1.3-1.3,1.3c-5.3,0.5-10.1,4.5-10.1,12.5v9.2c0,0.7-0.5,1.2-1.2,1.2c-0.7,0-1.2-0.5-1.2-1.2V14.7z"/>
			</g>
		</g>
	</g>
	<g class="st2">
		<path class="st1" d="M242.6,8.2c0-0.5,0.1-1.1,0.4-1.5c0.3-0.5,0.6-0.9,1.1-1.1c0.5-0.3,1-0.4,1.5-0.4c0.5,0,1.1,0.1,1.5,0.4
			s0.9,0.6,1.1,1.1c0.3,0.5,0.4,1,0.4,1.5c0,0.5-0.1,1-0.4,1.5c-0.3,0.5-0.6,0.8-1.1,1.1c-0.5,0.3-1,0.4-1.6,0.4
			c-0.6,0-1.1-0.1-1.6-0.4c-0.5-0.3-0.8-0.7-1.1-1.1C242.8,9.3,242.6,8.8,242.6,8.2z M243,8.2c0,0.5,0.1,0.9,0.4,1.3
			c0.2,0.4,0.6,0.7,1,1c0.4,0.2,0.9,0.4,1.3,0.4c0.5,0,0.9-0.1,1.3-0.4c0.4-0.2,0.7-0.6,1-1c0.2-0.4,0.4-0.9,0.4-1.3
			c0-0.5-0.1-0.9-0.3-1.3c-0.2-0.4-0.6-0.7-1-1c-0.4-0.3-0.9-0.4-1.4-0.4c-0.5,0-0.9,0.1-1.3,0.4c-0.4,0.2-0.7,0.6-1,1
			C243.1,7.3,243,7.8,243,8.2z M246.8,7.5c0,0.2-0.1,0.4-0.2,0.6s-0.3,0.3-0.4,0.4l1,1.6h-0.5l-0.9-1.5h-0.7V10h-0.4V6.5h0.9
			c0.4,0,0.7,0.1,0.9,0.3C246.7,6.9,246.8,7.1,246.8,7.5z M245.1,8.2h0.5c0.2,0,0.4-0.1,0.6-0.2c0.1-0.1,0.2-0.3,0.2-0.6
			c0-0.5-0.3-0.7-0.8-0.7h-0.4V8.2z"/>
	</g>
</g>
</svg>
