<?xml version="1.0" encoding="utf-8"?>
<!-- Generator: Adobe Illustrator 20.0.0, SVG Export Plug-In . SVG Version: 6.00 Build 0)  -->
<svg version="1.1" xmlns="http://www.w3.org/2000/svg" xmlns:xlink="http://www.w3.org/1999/xlink" x="0px" y="0px"
	 viewBox="0 0 478.5 140" style="enable-background:new 0 0 478.5 140;" xml:space="preserve" width="240" height="60">
<style type="text/css">
	.st0{fill:#FFFFFF;}
	.st1{fill:#333366;}
</style>
<g id="logo">
</g>
<g id="guides">
	<rect class="st0" width="478.5" height="140"/>
	<g>
		<path d="M130.4,77.3c-10.1,0-18.1-6.1-18.1-20.4c0-12.5,7.4-20.2,17.2-20.2c11.4,0,16.6,8.7,16.6,19.5v1.6h-26.5
			c0.2,9.1,4.6,13.3,11.4,13.3c5.6,0,9.7-2.2,14-5.6l1.1,6.5C141.8,75.4,136.8,77.3,130.4,77.3z M119.9,52.3h18.8
			c-0.9-6.3-3.7-9.9-9.3-9.9C124.9,42.4,121,45.7,119.9,52.3z"/>
		<path d="M170.4,79.9c-3.4,9.1-7.5,11.4-14,11.4c-1,0-1.8-0.2-2.5-0.3l-1-6.4c1.2,0.3,2.7,0.6,4.1,0.6c3,0,5.1-1.5,6.2-4.6l1.5-4
			l-14.2-38.6l7.2-1.1L168.3,68l10.4-30.5h7.4L170.4,79.9z"/>
		<path d="M208.3,77.3c-10.1,0-18.1-6.1-18.1-20.4c0-12.5,7.4-20.2,17.2-20.2c11.4,0,16.6,8.7,16.6,19.5v1.6h-26.5
			c0.2,9.1,4.6,13.3,11.4,13.3c5.6,0,9.7-2.2,14-5.6l1.1,6.5C219.8,75.4,214.8,77.3,208.3,77.3z M197.8,52.3h18.8
			c-0.9-6.3-3.7-9.9-9.3-9.9C202.8,42.4,199,45.7,197.8,52.3z"/>
		<path d="M240.5,53.5v23.1h-7.3v-39h5.8l1.2,7.9c2.8-4.4,7.3-8.4,13.7-8.7l1.1,6.9C248.6,44,243.2,48.3,240.5,53.5z"/>
		<path d="M276.9,77.3c-10.1,0-18.1-6.1-18.1-20.4c0-12.5,7.4-20.2,17.2-20.2c11.4,0,16.6,8.7,16.6,19.5v1.6h-26.5
			c0.2,9.1,4.6,13.3,11.4,13.3c5.6,0,9.7-2.2,14-5.6l1.1,6.5C288.4,75.4,283.4,77.3,276.9,77.3z M266.5,52.3h18.8
			c-0.9-6.3-3.7-9.9-9.3-9.9C271.5,42.4,267.6,45.7,266.5,52.3z"/>
		<path d="M315.1,77.2c-6.9,0-11.4-2.4-11.4-10.3V43.6h-5.9v-6.1h5.9v-13l7.1-1.1v14.1h8.4l1,6.1h-9.4v21.9c0,3.2,1.3,5.2,5.4,5.2
			c1.3,0,2.5-0.1,3.4-0.2l1,6.2C319.4,76.9,317.7,77.2,315.1,77.2z"/>
		<path d="M355.3,76.5l-0.9-5.6c-3.7,3.4-8.3,6.5-13.8,6.5c-7.4,0-11.3-4.4-11.3-11.4V37.5h7.3v26.6c0,4,1.7,6.7,6,6.7
			c3.8,0,7.8-2.5,11.3-6.3v-27h7.3v39H355.3z"/>
		<path d="M379.8,53.5v23.1h-7.3v-39h5.8l1.2,7.9c2.8-4.4,7.3-8.4,13.7-8.7l1.1,6.9C387.9,44,382.4,48.3,379.8,53.5z"/>
		<path d="M426.4,76.5V49.9c0-4-1.7-6.7-6-6.7c-3.8,0-7.8,2.5-11.3,6.3v27h-7.3v-39h5.8l0.9,5.6c3.7-3.3,8.3-6.5,13.8-6.5
			c7.4,0,11.3,4.4,11.3,11.4v28.4H426.4z"/>
	</g>
	<g>
		<path d="M322.4,112.8v-10.3c0-1.6-0.6-2.6-2.2-2.6c-1.5,0-2.9,1-4.3,2.4v10.5H313v-10.3c0-1.6-0.6-2.6-2.2-2.6
			c-1.5,0-2.9,1-4.3,2.4v10.5h-2.8V97.6h2.3l0.3,2.2c1.4-1.3,3.2-2.5,5.3-2.5c2.2,0,3.4,1,4,2.5c1.4-1.3,3.2-2.5,5.3-2.5
			c2.9,0,4.3,1.7,4.3,4.5v11H322.4z"/>
		<path d="M338.8,112.8l-0.3-2c-1.2,1.2-2.9,2.4-5.3,2.4c-2.7,0-4.5-1.7-4.5-4.2c0-3.8,3.2-5.3,9.6-6v-0.6c0-1.9-1.1-2.6-2.9-2.6
			c-1.8,0-3.6,0.6-5.3,1.3l-0.4-2.5c1.8-0.7,3.5-1.3,5.9-1.3c3.7,0,5.5,1.5,5.5,4.9v10.6H338.8z M338.3,105.1
			c-5.6,0.5-6.8,2.1-6.8,3.6c0,1.2,0.8,2,2.3,2c1.7,0,3.2-0.8,4.5-2.1V105.1z"/>
		<path d="M348.4,103.8v9h-2.8V97.6h2.3l0.5,3.1c1.1-1.7,2.8-3.3,5.3-3.4l0.4,2.7C351.5,100.1,349.4,101.8,348.4,103.8z"/>
		<path d="M366.5,113l-6.7-8.2v8h-2.8V90.2l2.8-0.4v14.2l5.9-6.4h3.4l-6.4,6.7l6.9,8.2L366.5,113z"/>
		<path d="M377.6,113.1c-3.9,0-7-2.4-7-8c0-4.9,2.9-7.9,6.7-7.9c4.4,0,6.5,3.4,6.5,7.6v0.6h-10.3c0.1,3.5,1.8,5.2,4.4,5.2
			c2.2,0,3.8-0.9,5.4-2.2l0.4,2.5C382,112.3,380.1,113.1,377.6,113.1z M373.5,103.3h7.3c-0.3-2.5-1.4-3.9-3.6-3.9
			C375.4,99.5,373.9,100.8,373.5,103.3z"/>
		<path d="M392.4,113c-2.7,0-4.4-1-4.4-4v-9h-2.3v-2.4h2.3v-5.1l2.8-0.4v5.5h3.3l0.4,2.4h-3.7v8.5c0,1.2,0.5,2,2.1,2
			c0.5,0,1,0,1.3-0.1l0.4,2.4C394.1,112.9,393.4,113,392.4,113z"/>
		<path d="M398.9,94.3c-1,0-1.8-0.8-1.8-1.8c0-1,0.8-1.8,1.8-1.8c1,0,1.8,0.8,1.8,1.8C400.6,93.5,399.8,94.3,398.9,94.3z
			 M398.2,112.8V97.6h2.8v15.2H398.2z"/>
		<path d="M415.3,112.8v-10.3c0-1.6-0.7-2.6-2.3-2.6c-1.5,0-3,1-4.4,2.4v10.5h-2.8V97.6h2.3l0.4,2.2c1.4-1.3,3.2-2.5,5.4-2.5
			c2.9,0,4.4,1.7,4.4,4.5v11H415.3z"/>
		<path d="M427.9,118.5c-3.9,0-7.1-1.2-7.1-3.9c0-1.6,1.1-2.8,3.2-3.9c-0.7-0.5-1-1-1-1.6c0-0.7,0.6-1.4,1.6-2.1
			c-1.7-0.9-2.8-2.5-2.8-4.5c0-3.3,2.7-5.3,5.8-5.3c1.5,0,2.9,0.5,3.9,1.3l3.9-1.2l0.4,2.5l-2.9,0.3c0.4,0.7,0.6,1.5,0.6,2.4
			c0,3.2-2.7,5.2-5.8,5.2c-0.4,0-0.8,0-1.1-0.1c-0.4,0.3-0.8,0.6-0.8,0.9c0,0.5,0.5,0.7,3.2,1.1l1.1,0.2c3.2,0.6,5.2,1.6,5.2,3.9
			C435.4,117.1,431.9,118.5,427.9,118.5z M426.1,111.6c-1.8,0.9-2.5,1.8-2.5,2.8c0,1.2,1.6,2.1,4.5,2.1c3,0,4.6-1,4.6-2.3
			c0-0.9-0.7-1.6-2.9-1.9L428,112C427.2,111.8,426.7,111.7,426.1,111.6z M427.7,99.3c-1.9,0-3.1,1.5-3.1,3.3c0,1.7,1.2,3.1,3.1,3.1
			c1.9,0,3.2-1.4,3.2-3.2S429.6,99.3,427.7,99.3z"/>
	</g>
	<g>
		<path class="st1" d="M69.8,25.5c-2.1-0.5-4.4-0.8-6.6-0.9c-12.7-0.3-23.8,6.7-29.4,17.2c-0.2,0.4,0,0.5,0.2,0.3
			c6.8-5.1,16.3-8,29.1-5c2.7,0.6,5.6,2,8.6,3.2l2-3.2l5.4,21.1l-21.3,4.6l1.9-3.1c-1.9-1.3-14.1-9.7-28.9-3.1
			c-0.5,0.2-0.7,0.6-0.7,1.1c0.2,15,10.7,27.7,24.9,31c2.1,0.5,4.4,0.8,6.6,0.9c7.5,0.2,14.5-2.2,20.1-6.4c0.3-0.2,0.2-0.5-0.2-0.3
			c-5.2,1.5-18.1,2.9-31.7-7.1l-1,1.5l-1.6-6.4l6.5-1.6l-1,1.6c0.7,0.7,23.5,13,39.9-3.4c0.5-0.7,0.8-1.9,1-2.9
			c0.5-2.1,0.8-4.4,0.9-6.6C95.1,42.2,84.4,28.9,69.8,25.5z"/>
	</g>
</g>
</svg>
