<?xml version="1.0" encoding="utf-8"?>
<!-- Generator: Adobe Illustrator 21.1.0, SVG Export Plug-In . SVG Version: 6.00 Build 0)  -->
<svg version="1.1" id="Layer_1" xmlns="http://www.w3.org/2000/svg" xmlns:xlink="http://www.w3.org/1999/xlink" x="0px" y="0px"
	 viewBox="0 0 210 65" style="enable-background:new 0 0 210 65;" xml:space="preserve">
<style type="text/css">
	.st0{fill:#58595B;}
	.st1{fill:#FBAF2A;}
	.st2{fill:#FFF100;}
	.st3{fill:#F58A1F;}
	.st4{fill:#F37C28;}
	.st5{fill:#EF5327;}
	.st6{fill:#EF5023;}
	.st7{fill:#E03927;}
</style>
<g>
	<g>
		<g>
			<path class="st0" d="M31.5,48.8v-3.3c0.6,0.1,1.2,0.1,1.7,0.1c0.9,0,1.7-0.1,2.1-0.4c0.5-0.3,0.8-0.7,0.9-1.3
				c0.2-0.6,0.2-6.3,0.2-9.2v-13h-2.9v-3.2h6.5v15.6c0,3.1-0.1,9.4-0.3,10.6c-0.2,1.2-0.8,2.2-1.8,3c-1,0.8-2.5,1.2-4.4,1.2
				C32.9,49,32.2,48.9,31.5,48.8z"/>
			<path class="st0" d="M33.7,49.1c-0.7,0-1.5-0.1-2.1-0.2l-0.1,0v-3.5l0.2,0c0.6,0.1,1.2,0.1,1.7,0.1c0.9,0,1.6-0.1,2.1-0.4
				c0.4-0.3,0.7-0.7,0.9-1.2c0.1-0.5,0.2-5.9,0.2-9.2V21.9h-2.9v-3.5h6.7v15.7c0,3.2-0.1,9.4-0.3,10.7c-0.2,1.3-0.8,2.3-1.8,3.1
				C37.2,48.7,35.6,49.1,33.7,49.1z M31.7,48.7c0.6,0.1,1.3,0.2,2,0.2c1.9,0,3.4-0.4,4.3-1.2c1-0.8,1.6-1.8,1.7-2.9
				c0.2-1.2,0.3-7.5,0.3-10.6V18.7h-6.2v2.9h2.9v13.1c0,2.5-0.1,8.7-0.2,9.3c-0.2,0.6-0.5,1-1,1.3c-0.5,0.3-1.2,0.5-2.2,0.5
				c-0.5,0-1.1,0-1.6-0.1V48.7z"/>
		</g>
	</g>
	<g>
		<g>
			<polygon class="st0" points="64.5,33.7 64.5,21.7 61.6,21.7 61.6,18.5 68.1,18.5 68.1,33.7 70.9,33.7 70.9,36.9 61.6,36.9 
				61.6,33.7 			"/>
			<path class="st0" d="M71,37h-9.5v-3.5h2.8V21.9h-2.8v-3.5h6.7v15.1H71V37z M61.8,36.7h9v-2.9h-2.8V18.7h-6.2v2.9h2.8v12.2h-2.8
				V36.7z"/>
		</g>
	</g>
	<g>
		<g>
			<path class="st0" d="M88.4,18.5v6.9h-3.2c-0.2-1.3-0.7-2.3-1.6-3c-0.9-0.7-2-1.1-3.2-1.1c-1.6,0-2.9,0.6-3.9,1.7
				c-1,1.1-1.5,2.6-1.5,4.5c0,1.7,0.5,3.3,1.4,4.6c1,1.3,2.3,2,4.2,2c2.5,0,4.4-1.2,5.5-3.6l3,1.4c-1.6,3.6-4.5,5.5-8.6,5.5
				c-2.9,0-5.2-1-6.8-3c-1.7-2-2.5-4.3-2.5-6.8c0-2.8,0.9-5,2.7-6.8c1.8-1.8,3.9-2.7,6.3-2.7c2,0,3.7,0.6,5.1,1.8v-1.3H88.4z"/>
			<path class="st0" d="M80.3,37.5c-2.9,0-5.3-1-7-3c-1.7-2-2.5-4.3-2.5-6.9c0-2.8,0.9-5.1,2.8-6.9c1.8-1.8,4-2.7,6.4-2.7
				c1.9,0,3.6,0.6,5,1.6v-1.1h3.5v7.2H85l0-0.1c-0.2-1.3-0.7-2.3-1.6-3c-0.9-0.7-1.9-1-3.1-1c-1.6,0-2.9,0.6-3.8,1.7
				c-1,1.1-1.5,2.6-1.5,4.4c0,1.7,0.5,3.2,1.4,4.5c0.9,1.3,2.3,1.9,4,1.9c2.5,0,4.3-1.2,5.4-3.5l0.1-0.1l3.2,1.5L89.1,32
				C87.4,35.7,84.5,37.5,80.3,37.5z M80,18.2c-2.3,0-4.4,0.9-6.2,2.7c-1.8,1.8-2.7,4-2.7,6.7c0,2.5,0.8,4.8,2.5,6.8
				c1.6,1.9,3.9,2.9,6.7,2.9c4,0,6.8-1.8,8.4-5.3l-2.7-1.3c-1.2,2.4-3,3.6-5.6,3.6c-1.9,0-3.3-0.7-4.3-2c-1-1.3-1.5-2.9-1.5-4.7
				c0-1.9,0.5-3.4,1.5-4.6c1-1.2,2.4-1.8,4-1.8c1.2,0,2.3,0.4,3.3,1.1c0.9,0.7,1.5,1.7,1.7,3h3v-6.6h-2.9v1.5l-0.2-0.2
				C83.7,18.8,82,18.2,80,18.2z"/>
		</g>
	</g>
	<g>
		<path class="st0" d="M100.4,34.3c-1.7,0-3.1-0.5-4.3-1.6c-1.1-1-1.8-2.4-2-4.1h15.4c-0.1-3.5-1.1-6.1-3.1-7.9
			c-2-1.8-4.2-2.7-6.7-2.7c-2.5,0-4.7,0.9-6.7,2.7c-1.9,1.8-2.9,4.1-2.9,6.9c0,3,1,5.3,3,7.1c2,1.7,4.4,2.6,7.2,2.6
			c1.8,0,3.5-0.4,5.2-1.2c1.7-0.8,3-2,4-3.6l-3.2-1.4C104.9,33.3,103,34.3,100.4,34.3z M96.2,22.3c1-0.9,2.3-1.4,3.7-1.4
			c1.6,0,2.9,0.5,4,1.6c1.1,1,1.8,2.2,2,3.5H94.3C94.5,24.5,95.2,23.3,96.2,22.3z"/>
		<path class="st0" d="M100.4,37.5c-2.8,0-5.3-0.9-7.3-2.7c-2-1.8-3-4.2-3-7.2c0-2.8,1-5.2,2.9-7c2-1.8,4.2-2.8,6.8-2.8
			c2.5,0,4.8,0.9,6.8,2.7c2,1.8,3.1,4.5,3.2,8l0,0.1H94.3c0.2,1.6,0.9,2.9,1.9,3.9c1.1,1,2.5,1.5,4.2,1.5c2.5,0,4.4-1,5.8-3l0.1-0.1
			l3.4,1.5l-0.1,0.1c-1,1.6-2.4,2.8-4.1,3.6C103.9,37.1,102.2,37.5,100.4,37.5z M99.8,18.2c-2.5,0-4.7,0.9-6.6,2.7
			c-1.9,1.8-2.9,4.1-2.9,6.8c0,2.9,1,5.3,2.9,7c2,1.7,4.3,2.6,7.1,2.6c1.8,0,3.5-0.4,5.1-1.2c1.6-0.7,2.9-1.9,3.9-3.4l-2.9-1.3
			c-1.5,2-3.5,3-6,3c-1.8,0-3.2-0.5-4.4-1.6c-1.1-1.1-1.8-2.5-2-4.2l0-0.2h15.4c-0.1-3.4-1.1-6-3.1-7.7
			C104.4,19,102.2,18.2,99.8,18.2z M106,26.1H94.2l0-0.2c0.2-1.5,0.9-2.8,1.9-3.7c1-1,2.3-1.4,3.8-1.4c1.6,0,3,0.5,4.1,1.6
			c1.1,1.1,1.8,2.3,2,3.6L106,26.1z M94.5,25.9h11.2c-0.3-1.2-0.9-2.3-1.9-3.3c-1.1-1-2.4-1.5-3.9-1.5c-1.4,0-2.6,0.5-3.6,1.4
			C95.3,23.3,94.7,24.5,94.5,25.9z"/>
	</g>
	<g>
		<path class="st0" d="M59.5,36.9V18.5h-6.8v3.2h3.2v9.9C54,33.2,52.3,34,50.6,34c-0.6,0-1-0.2-1.4-0.5c-0.4-0.3-0.6-0.7-0.7-1.2
			c-0.1-0.5-0.1-1.4-0.1-2.7V18.5h-6.2v3.2h2.6v8.4c0,1.9,0.1,3.3,0.4,4.1c0.3,0.9,0.8,1.5,1.6,2.1c0.8,0.5,1.8,0.8,3,0.8
			c1.9,0,3.9-0.8,6.1-2.4v2.1H59.5z"/>
		<path class="st0" d="M49.9,37.3c-1.2,0-2.3-0.3-3.1-0.8c-0.8-0.6-1.4-1.3-1.7-2.2c-0.3-0.9-0.4-2.3-0.4-4.2v-8.3h-2.6v-3.5h6.5
			v11.3c0,1.3,0,2.2,0.1,2.7c0.1,0.4,0.3,0.8,0.6,1.1c0.3,0.3,0.8,0.4,1.3,0.4c1.6,0,3.4-0.8,5.2-2.3v-9.7h-3.2v-3.5h7.1V37h-3.9v-2
			C53.8,36.5,51.8,37.3,49.9,37.3z M42.4,21.6H45v8.6c0,1.9,0.1,3.2,0.4,4.1c0.3,0.8,0.8,1.5,1.5,2c0.8,0.5,1.8,0.8,3,0.8
			c1.9,0,3.9-0.8,6-2.4l0.2-0.2v2.2h3.3v-18h-6.5v2.9h3.2v10.1l0,0c-1.9,1.6-3.7,2.4-5.4,2.4c-0.6,0-1.1-0.2-1.5-0.5
			c-0.4-0.3-0.6-0.7-0.7-1.2c-0.1-0.5-0.1-1.4-0.1-2.7v-11h-5.9V21.6z"/>
	</g>
	<path class="st1" d="M12.5,15.5c-1.1-2.3-1.2-4.7-0.5-6.7c-1.1-0.5-2.3-0.7-3.3-0.6c-3.8,0.3-7.3,2.3-7.8,7.7
		c-0.2,2.3,1.6,5.1,4.9,6.4C7.2,19,9.8,16.8,12.5,15.5z"/>
	<path class="st2" d="M24.4,3.8c-5.2-2.9-10,1-11.1,2.5c-0.6,0.8-1.1,1.7-1.4,2.6c2.6,1.1,4.9,3.4,4.9,5.7c3.8,0,8.3,1,10.7,4.4
		c0.5-0.4,1-0.8,1.5-1.3C32.8,13.8,29.6,6.7,24.4,3.8z"/>
	<path class="st3" d="M12.5,15.5c1.4-0.6,2.8-1,4.1-1c0.1,0,0.1,0,0.2,0c0-2.3-2.3-4.6-4.9-5.7C11.3,10.9,11.4,13.2,12.5,15.5z"/>
	<path class="st4" d="M15.8,19.9c-0.3-0.3-0.7-0.6-0.9-0.9c-1.8,2.5-4.7,4.5-7.5,3.8c-0.6-0.1-1.1-0.3-1.7-0.5
		c-0.5,1-0.9,2.1-1.1,3.3C3,33,12.6,40.3,19.5,36.3c6.9-4,10.9-10.1,9.1-15.3c-0.3-0.8-0.6-1.5-1.1-2.1
		C23.7,21.7,18.7,22.6,15.8,19.9z"/>
	<path class="st5" d="M14.9,19c-1.1-1.1-1.8-2.3-2.4-3.5c-2.7,1.2-5.3,3.5-6.8,6.8c0.5,0.2,1.1,0.4,1.7,0.5
		C10.1,23.5,13,21.5,14.9,19z"/>
	<path class="st6" d="M16.8,14.5c0,0.2,0,0.5-0.1,0.7c-0.3,1.2-0.9,2.5-1.9,3.8c0.3,0.3,0.6,0.6,0.9,0.9c2.9,2.6,7.9,1.8,11.7-1
		C25.1,15.5,20.6,14.5,16.8,14.5z"/>
	<path class="st7" d="M12.5,15.5c0.5,1.2,1.3,2.4,2.4,3.5c0.9-1.3,1.6-2.6,1.9-3.8c0.1-0.2,0.1-0.5,0.1-0.7c-0.1,0-0.1,0-0.2,0
		C15.3,14.5,13.9,14.9,12.5,15.5z"/>
	<polygon class="st0" points="127.6,34.9 127.6,37 134.5,37 134.5,34.9 132.2,34.9 132.2,20.1 134.5,20.1 134.5,18 128.1,18 
		122.9,31.6 117.7,18 111.4,18 111.4,20.1 113.7,20.1 113.7,34.9 111.4,34.9 111.4,37 117.8,37 117.8,34.9 115.7,34.9 115.7,19.4 
		122.6,37.2 122.9,37.2 129.9,19.4 129.9,34.9 	"/>
	<path class="st0" d="M144.6,17.7c-2.9,0-5.2,0.9-7,2.8c-1.8,1.8-2.7,4.2-2.7,6.9c0,1.7,0.4,3.3,1.2,4.9c0.8,1.6,1.9,2.8,3.5,3.7
		c1.5,0.9,3.2,1.3,5.1,1.3c2.9,0,5.3-0.9,7.1-2.8c1.9-1.8,2.8-4.2,2.8-7c0-2.8-0.9-5.1-2.8-7C149.9,18.7,147.5,17.7,144.6,17.7z
		 M149.6,32.8c-1.3,1.5-3,2.3-5.1,2.3c-2.1,0-3.7-0.7-5-2.2c-1.3-1.5-1.9-3.3-1.9-5.4c0-2.1,0.6-3.9,1.9-5.3c1.3-1.4,2.9-2.2,5-2.2
		c2,0,3.7,0.7,5.1,2.2c1.3,1.4,2,3.2,2,5.3C151.6,29.5,151,31.3,149.6,32.8z"/>
	<path class="st0" d="M164.6,36.8c0.8-0.1,1.6-0.4,2.3-0.8c0.7-0.4,1.2-1,1.7-1.7c0.4-0.7,0.6-1.6,0.6-2.5c0-1.1-0.3-2-0.8-2.8
		c-0.6-0.8-1.4-1.4-2.4-1.8l-0.4-0.1l0.4-0.2c0.7-0.4,1.3-0.9,1.7-1.6c0.4-0.7,0.6-1.5,0.6-2.3c0-1.1-0.3-2.1-1-2.9
		c-0.6-0.8-1.4-1.4-2.2-1.6c-0.9-0.2-2.2-0.3-3.9-0.3h-6.3v2.1h2.4v14.8h-2.4V37h6.4C162.6,37,163.8,36.9,164.6,36.8z M159.8,20.1h2
		c2.6,0,3.9,1,3.9,2.9c0,1-0.3,1.8-0.9,2.3c-0.6,0.5-1.6,0.8-3,0.8h-2V20.1z M159.8,34.9v-6.8h1.8c1.2,0,2.1,0.1,2.7,0.3
		c0.7,0.2,1.2,0.5,1.6,1.1c0.4,0.5,0.6,1.2,0.6,2c0,0.9-0.2,1.6-0.7,2.2c-0.4,0.6-1,0.9-1.7,1.1c-0.7,0.1-1.7,0.2-3.2,0.2H159.8z"/>
	<polygon class="st0" points="170.5,18 170.5,20.1 172.6,20.1 172.6,34.9 170.5,34.9 170.5,37 177.2,37 177.2,34.9 175.2,34.9 
		175.2,18 	"/>
	<polygon class="st0" points="178.9,18 178.9,20.1 181.4,20.1 181.4,34.9 178.9,34.9 178.9,37 192.7,37 192.7,32.3 190.3,32.3 
		190.3,34.9 184.1,34.9 184.1,18 	"/>
	<polygon class="st0" points="209.2,22.2 209.2,18 193.5,18 193.5,20.1 196,20.1 196,34.9 193.5,34.9 193.5,37 209.2,37 209.2,32.3 
		207.2,32.3 207.2,34.9 198.6,34.9 198.6,28.3 205.8,28.3 205.8,26.2 198.6,26.2 198.6,20.1 207.2,20.1 207.2,22.2 	"/>
	<path class="st0" d="M96.5,43.8h1.2l-2.1,11.7h-1.2L96.5,43.8z"/>
	<path class="st0" d="M97.5,57.5l0.9-0.6c0.5,0.9,1.3,1.4,2.4,1.4c1.4,0,2.3-0.8,2.6-2.5l0.3-1.7c-0.6,0.9-1.5,1.5-2.6,1.5
		c-1.8,0-3-1.4-3-3.4c0-2.4,1.6-4,3.6-4c1.3,0,2.4,0.8,2.7,2.1l0.3-1.9h1.2l-1.3,7.6c-0.4,2.3-1.8,3.3-3.8,3.3
		C99.3,59.3,98.1,58.5,97.5,57.5z M104.3,51.7c0-1.4-0.9-2.5-2.2-2.5c-1.6,0-2.6,1.3-2.6,3c0,1.4,0.8,2.4,2.1,2.4
		C103.1,54.6,104.2,53.4,104.3,51.7z"/>
	<path class="st0" d="M108.2,48.4h1.2l-0.3,1.4c0.5-0.9,1.4-1.6,2.5-1.6c1.6,0,2.6,1.2,2.2,3.2l-0.5,2.6c-0.1,0.4,0,0.5,0.3,0.5h0.7
		l-0.2,0.9h-0.8c-1,0-1.4-0.5-1.2-1.6l0.4-2.4c0.2-1.4-0.3-2.2-1.5-2.2c-1.3,0-2.1,0.8-2.4,2.2l-0.7,4H107L108.2,48.4z"/>
	<path class="st0" d="M116.2,53.9l1-5.5h1.2l-1,5.6c-0.1,0.4,0,0.5,0.3,0.5h0.7l-0.2,0.9h-0.8C116.3,55.5,116,55,116.2,53.9z
		 M117.4,45.5c0-0.5,0.4-0.8,0.8-0.8c0.4,0,0.8,0.3,0.8,0.8c0,0.5-0.4,0.8-0.8,0.8C117.8,46.3,117.4,46,117.4,45.5z"/>
	<path class="st0" d="M120.3,49.4l0.2-1h1.1l0.7-3.7h1.1l-0.7,3.7h1.9l-0.2,1h-1.9l-0.7,4c-0.2,0.9,0.1,1.3,0.7,1.3
		c0.4,0,0.7-0.2,0.9-0.4L124,55c-0.4,0.3-0.8,0.6-1.6,0.6c-1.1,0-2-0.7-1.7-2.3l0.7-3.9H120.3z"/>
	<path class="st0" d="M129,54.7c1,0,1.7-0.4,2.2-0.9l0.7,0.7c-0.7,0.7-1.7,1.1-3,1.1c-2.2,0-3.6-1.5-3.6-3.5c0-2.2,1.6-3.9,3.7-3.9
		c2.2,0,3.3,1.6,3.3,3.7l-5.8,0.6C126.8,53.8,127.7,54.7,129,54.7z M131.2,51.2c-0.1-1-0.7-2-2.1-2c-1.4,0-2.3,1-2.5,2.5L131.2,51.2
		z"/>
	<path class="st0" d="M137.2,49.4l0.2-1h1.1l0.7-3.7h1.1l-0.7,3.7h1.9l-0.2,1h-1.9l-0.7,4c-0.2,0.9,0.1,1.3,0.7,1.3
		c0.4,0,0.7-0.2,0.9-0.4l0.5,0.8c-0.4,0.3-0.8,0.6-1.6,0.6c-1.1,0-2-0.7-1.7-2.3l0.7-3.9H137.2z"/>
	<path class="st0" d="M144.7,43.1h1.2l-1.2,6.6c0.5-0.9,1.3-1.5,2.5-1.5c1.6,0,2.6,1.2,2.2,3.2L149,54c-0.1,0.4,0,0.5,0.3,0.5h0.7
		l-0.2,0.9h-0.8c-1,0-1.4-0.5-1.2-1.6l0.4-2.4c0.2-1.4-0.3-2.2-1.5-2.2c-1.3,0-2.1,0.8-2.4,2.2l-0.7,4h-1.2L144.7,43.1z"/>
	<path class="st0" d="M155,54.7c1,0,1.7-0.4,2.2-0.9l0.7,0.7c-0.7,0.7-1.7,1.1-3,1.1c-2.2,0-3.6-1.5-3.6-3.5c0-2.2,1.6-3.9,3.7-3.9
		c2.2,0,3.3,1.6,3.3,3.7l-5.8,0.6C152.8,53.8,153.7,54.7,155,54.7z M157.2,51.2c-0.1-1-0.7-2-2.1-2c-1.4,0-2.3,1-2.5,2.5L157.2,51.2
		z"/>
	<path class="st0" d="M162.2,53.3l1-0.6c0.6,0.9,1.4,1.9,2.9,1.9c1.6,0,2.5-0.9,2.5-2.2c0-0.9-0.5-1.4-1.6-2.2l-0.8-0.5
		c-1.3-0.9-2.1-1.8-2.1-3.1c0-1.8,1.3-2.9,3-2.9c1.5,0,2.4,0.7,3,1.6l-1,0.7c-0.5-0.7-1-1.2-2-1.2c-1,0-1.8,0.7-1.8,1.8
		c0,0.9,0.4,1.4,1.5,2.1l0.8,0.5c1.5,0.9,2.3,1.8,2.3,3.3c0,2-1.4,3.3-3.7,3.3C164.1,55.6,162.8,54.4,162.2,53.3z"/>
	<path class="st0" d="M171.5,52.1c0-2.2,1.6-3.9,3.8-3.9c1.3,0,2.2,0.5,2.7,1.3l-0.9,0.7c-0.4-0.6-1-0.9-1.9-0.9
		c-1.6,0-2.6,1.2-2.6,2.8c0,1.4,0.9,2.5,2.3,2.5c1,0,1.6-0.4,1.9-0.7l0.7,0.8c-0.5,0.5-1.3,0.9-2.6,0.9
		C173,55.6,171.5,54.1,171.5,52.1z"/>
	<path class="st0" d="M180.3,48.4h1.2l-0.3,1.5c0.5-1.1,1.3-1.7,2.2-1.7c0.4,0,0.7,0.1,0.9,0.2l-0.5,1c-0.2-0.1-0.4-0.2-0.7-0.2
		c-1.2,0-2,0.9-2.2,2.4l-0.7,3.7h-1.2L180.3,48.4z"/>
	<path class="st0" d="M188.1,54.7c1,0,1.7-0.4,2.2-0.9l0.7,0.7c-0.7,0.7-1.7,1.1-3,1.1c-2.2,0-3.6-1.5-3.6-3.5
		c0-2.2,1.6-3.9,3.7-3.9c2.2,0,3.3,1.6,3.3,3.7l-5.8,0.6C185.9,53.8,186.8,54.7,188.1,54.7z M190.3,51.2c-0.1-1-0.7-2-2.1-2
		c-1.4,0-2.3,1-2.5,2.5L190.3,51.2z"/>
	<path class="st0" d="M196.4,54.7c1,0,1.7-0.4,2.2-0.9l0.7,0.7c-0.7,0.7-1.7,1.1-3,1.1c-2.2,0-3.6-1.5-3.6-3.5
		c0-2.2,1.6-3.9,3.7-3.9c2.2,0,3.3,1.6,3.3,3.7l-5.8,0.6C194.1,53.8,195,54.7,196.4,54.7z M198.5,51.2c-0.1-1-0.7-2-2.1-2
		c-1.4,0-2.3,1-2.5,2.5L198.5,51.2z"/>
	<path class="st0" d="M202.1,48.4h1.2l-0.3,1.4c0.5-0.9,1.4-1.6,2.5-1.6c1.6,0,2.6,1.2,2.2,3.2l-0.5,2.6c-0.1,0.4,0,0.5,0.3,0.5h0.7
		l-0.2,0.9h-0.8c-1,0-1.4-0.5-1.2-1.6l0.4-2.4c0.2-1.4-0.3-2.2-1.5-2.2c-1.3,0-2.1,0.8-2.4,2.2l-0.7,4h-1.2L202.1,48.4z"/>
</g>
</svg>
